<svg width="115" height="19" viewBox="0 0 115 19" fill="none" xmlns="http://www.w3.org/2000/svg">
<path d="M105 1.66663L107.575 6.88329L113.333 7.72496L109.167 11.7833L110.15 17.5166L105 14.8083L99.85 17.5166L100.833 11.7833L96.6667 7.72496L102.425 6.88329L105 1.66663Z" stroke="#C99E71" stroke-width="2" stroke-linecap="round" stroke-linejoin="round"/>
<path d="M82.3333 1.66693L84.9083 6.8836L90.6667 7.72526L86.5 11.7836L87.4833 17.5169L82.3333 14.8086L77.1833 17.5169L78.1667 11.7836L74 7.72526L79.7583 6.8836L82.3333 1.66693Z" fill="#C99E71"/>
<path d="M57 1.66693L59.575 6.8836L65.3333 7.72526L61.1667 11.7836L62.15 17.5169L57 14.8086L51.85 17.5169L52.8333 11.7836L48.6667 7.72526L54.425 6.8836L57 1.66693Z" fill="#C99E71"/>
<path d="M33 1.66663L35.575 6.88329L41.3333 7.72496L37.1667 11.7833L38.15 17.5166L33 14.8083L27.85 17.5166L28.8333 11.7833L24.6667 7.72496L30.425 6.88329L33 1.66663Z" fill="#C99E71"/>
<path d="M8.99999 1.66663L11.575 6.88329L17.3333 7.72496L13.1667 11.7833L14.15 17.5166L8.99999 14.8083L3.84999 17.5166L4.83332 11.7833L0.666656 7.72496L6.42499 6.88329L8.99999 1.66663Z" fill="#C99E71"/>
</svg>
